<svg height="512" viewBox="0 0 64 64" width="512" xmlns="http://www.w3.org/2000/svg"><path d="M59 32a1 1 0 00-1-1H42V6a1 1 0 00-1-1H15a1 1 0 00-1 1v25H6a1 1 0 00-1 1v25H2v2h60v-2h-3zm-17 1h6v3.586l-.293-.293a1 1 0 00-1.414 0L45 37.586l-1.293-1.293a1 1 0 00-1.414 0l-.293.293zM31 7v3.586l-.293-.293a1 1 0 00-1.414 0L28 11.586l-1.293-1.293a1 1 0 00-1.414 0l-.293.293V7zM16 7h7v6a1 1 0 001.707.707L26 12.414l1.293 1.293a1 1 0 001.414 0L30 12.414l1.293 1.293A1 1 0 0033 13V7h7v24H16zm0 26h6v3.586l-.293-.293a1 1 0 00-1.414 0L19 37.586l-1.293-1.293a1 1 0 00-1.414 0l-.293.293zm-9 0h7v6a1 1 0 001.707.707L17 38.414l1.293 1.293a1 1 0 001.414 0L21 38.414l1.293 1.293A1 1 0 0024 39v-6h7v24H7zm26 24V33h7v6a1 1 0 001.707.707L43 38.414l1.293 1.293a1 1 0 001.414 0L47 38.414l1.293 1.293A1 1 0 0050 39v-6h7v24z"/><path d="M9 41h5v2H9zm0 4h7v2H9zm26-4h6v2h-6zm0 4h9v2h-9zM18 15h3v2h-3zm0 4h9v2h-9zm10 30h-4a1 1 0 00-1 1v4a1 1 0 001 1h4a1 1 0 001-1v-4a1 1 0 00-1-1zm-1 4h-2v-2h2zm27-4h-4a1 1 0 00-1 1v4a1 1 0 001 1h4a1 1 0 001-1v-4a1 1 0 00-1-1zm-1 4h-2v-2h2zM33 29h4a1 1 0 001-1v-4a1 1 0 00-1-1h-4a1 1 0 00-1 1v4a1 1 0 001 1zm1-4h2v2h-2z"/></svg>