<svg xmlns="http://www.w3.org/2000/svg" viewBox="0 0 512 512"><path d="M442.4 52L275.8 2.9c-12.9-3.8-26.6-3.8-39.6 0L69.6 52c-12.3 3.6-20.9 15.1-20.9 28v138c0 63.9 19 125.4 55 177.9 35.1 51.2 84 90.7 141.3 114 3.6 1.4 7.3 2.2 11 2.2s7.5-.7 11-2.2c57.3-23.3 106.2-62.8 141.3-114 36-52.5 55-114 55-177.9V80c0-12.9-8.6-24.4-20.9-28zM440 218c0 59.1-17.6 116.1-50.9 164.7-32.5 47.5-77.8 84-130.9 105.6-1.4.6-3 .6-4.5 0-53.1-21.6-98.4-58.1-130.9-105.6C89.6 334.1 72 277.1 72 218V80c0-2.6 1.7-4.9 4.2-5.6l166.7-49.1c4.3-1.3 8.8-1.9 13.2-1.9 4.4 0 8.9.6 13.2 1.9L436 74.4c2.5.7 4.2 3 4.2 5.6l-.2 138z"/><path d="M385.1 103.6L260.9 66.9c-3.2-1-6.7-1-9.9 0l-124.2 36.6c-7.4 2.2-12.5 9.1-12.5 16.8V218c0 51.6 15.6 101.1 45.1 143.1 22.9 32.6 53.5 59.5 88.5 77.8 2.5 1.3 5.3 2 8.1 2s5.6-.7 8.1-2c35-18.3 65.6-45.2 88.5-77.8 29.5-42 45.1-91.5 45.1-143.1v-97.6c0-7.8-5.2-14.7-12.6-16.8zm-5.8 108.6c0 53.5-19 97.4-45.8 135.5-20.2 28.7-46.9 52.6-77.5 69.1-30.6-16.6-57.3-40.4-77.5-69.1-26.8-38.1-40.9-82.9-40.9-129.7v-93.3L256 89.8l118.4 34.9v21c40.6 14.9 17.1 49.6 4.9 66.5z"/><path d="M185.5 232.4c-4.4-4.5-11.4-4.5-15.7.1-4.3 4.6-4.2 11.9.2 16.4l64.8 66.4c4.3 4.4 11.2 4.5 15.5.1l125.7-128c4.4-4.5 4.4-11.8.1-16.4-4.3-4.6-11.3-4.7-15.7-.3L242.5 290.8l-57-58.4z"/></svg>