<svg version="1.0" xmlns="http://www.w3.org/2000/svg" width="68" height="40" viewBox="0 0 680 400"><path d="M50 392c0-8 94-223 125-284l13-28H94c-52 0-94-2-94-5 0-2 8-20 17-40L34 0h144c84 0 142 4 140 9-1 5-39 95-83 200l-80 191h-52c-29 0-53-4-53-8zm176-49c14-32 53-122 87-200L375 0h77c50 0 78 4 78 11 0 6 7 8 16 5 23-9 64 20 64 44 0 13 7 20 18 20 25 0 47 47 31 66-9 11-8 15 5 20 21 8 22 72 1 80-12 5-13 10-5 19 14 16-14 65-36 65-8 0-14 6-14 13 0 24-37 49-59 42-12-4-21-2-21 4 0 7-55 11-165 11H200l26-57zm320-38c25-17 54-74 54-105 0-36-31-90-61-105-36-19-83-19-99 0-12 14-69 130-95 193l-14 32h97c70 0 104-4 118-15z" fill="#4a403d"/><path d="M226 343c14-32 53-122 87-200L375 0h77c50 0 78 4 78 11 0 6 7 8 16 5 23-9 64 20 64 44 0 13 7 20 18 20 25 0 47 47 31 66-9 11-8 15 5 20 21 8 22 72 1 80-12 5-13 10-5 19 14 16-14 65-36 65-8 0-14 6-14 13 0 24-37 49-59 42-12-4-21-2-21 4 0 7-55 11-165 11H200l26-57zm320-38c25-17 54-74 54-105 0-36-31-90-61-105-36-19-83-19-99 0-12 14-69 130-95 193l-14 32h97c70 0 104-4 118-15z" fill="#ff191b"/></svg>