<!DOCTYPE svg PUBLIC "-//W3C//DTD SVG 20010904//EN" "http://www.w3.org/TR/2001/REC-SVG-20010904/DTD/svg10.dtd">
<svg version="1.0" xmlns="http://www.w3.org/2000/svg" width="68px" height="40px" viewBox="0 0 680 400" preserveAspectRatio="xMidYMid meet">
<g id="layer101" fill="#4a403d" stroke="none">
 <path d="M50 392 c0 -8 94 -223 125 -284 l13 -28 -94 0 c-52 0 -94 -2 -94 -5 0 -2 8 -20 17 -40 l17 -35 144 0 c84 0 142 4 140 9 -1 5 -39 95 -83 200 l-80 191 -52 0 c-29 0 -53 -4 -53 -8z"/>
 <path d="M226 343 c14 -32 53 -122 87 -200 l62 -143 77 0 c50 0 78 4 78 11 0 6 7 8 16 5 23 -9 64 20 64 44 0 13 7 20 18 20 25 0 47 47 31 66 -9 11 -8 15 5 20 21 8 22 72 1 80 -12 5 -13 10 -5 19 14 16 -14 65 -36 65 -8 0 -14 6 -14 13 0 24 -37 49 -59 42 -12 -4 -21 -2 -21 4 0 7 -55 11 -165 11 l-165 0 26 -57z m320 -38 c25 -17 54 -74 54 -105 0 -36 -31 -90 -61 -105 -36 -19 -83 -19 -99 0 -12 14 -69 130 -95 193 l-14 32 97 0 c70 0 104 -4 118 -15z"/>
 </g>
<g id="layer102" fill="#ff191b" stroke="none">
 <path d="M226 343 c14 -32 53 -122 87 -200 l62 -143 77 0 c50 0 78 4 78 11 0 6 7 8 16 5 23 -9 64 20 64 44 0 13 7 20 18 20 25 0 47 47 31 66 -9 11 -8 15 5 20 21 8 22 72 1 80 -12 5 -13 10 -5 19 14 16 -14 65 -36 65 -8 0 -14 6 -14 13 0 24 -37 49 -59 42 -12 -4 -21 -2 -21 4 0 7 -55 11 -165 11 l-165 0 26 -57z m320 -38 c25 -17 54 -74 54 -105 0 -36 -31 -90 -61 -105 -36 -19 -83 -19 -99 0 -12 14 -69 130 -95 193 l-14 32 97 0 c70 0 104 -4 118 -15z"/>
 </g>

</svg>